<svg xmlns="http://www.w3.org/2000/svg" width="20" height="20" viewBox="0 0 20 20" fill="none">
  <g clip-path="url(#clip0_315_5182)">
    <path d="M19.6 10.23C19.6 9.54998 19.54 8.86998 19.42 8.22998H10V12.03H15.38C15.2689 12.6401 15.0352 13.2214 14.6932 13.7387C14.3512 14.2561 13.9078 14.6987 13.39 15.04V17.54H16.61C18.5 15.8 19.6 13.24 19.6 10.23Z" fill="#4285F4"/>
    <path d="M10.0001 20C12.7001 20 14.9601 19.1 16.6101 17.57L13.3901 15.07C12.5001 15.67 11.3501 16.02 10.0001 16.02C7.39007 16.02 5.18007 14.26 4.39007 11.89H1.07007V14.47C1.89922 16.1293 3.17353 17.5253 4.75056 18.5019C6.32758 19.4785 8.14515 19.9972 10.0001 20Z" fill="#34A853"/>
    <path d="M4.39 11.89C4.19275 11.2796 4.09484 10.6415 4.1 10C4.1 9.34003 4.21 8.70003 4.39 8.11003V5.53003H1.07C0.371104 6.91674 0.0047611 8.44716 0 10C0 11.61 0.39 13.14 1.07 14.47L4.39 11.89Z" fill="#FBBC05"/>
    <path d="M10.0001 4C11.4701 4 12.8001 4.51 13.8401 5.5L16.7201 2.62C15.5786 1.58472 14.2134 0.827245 12.7309 0.406696C11.2484 -0.0138523 9.68875 -0.0860922 8.17373 0.195616C6.6587 0.477324 5.22927 1.10536 3.99703 2.03069C2.76479 2.95603 1.76307 4.15363 1.07007 5.53L4.40007 8.11C4.79066 6.92795 5.53985 5.89696 6.54347 5.16037C7.54709 4.42378 8.75528 4.0182 10.0001 4Z" fill="#EA4335"/>
  </g>
  <defs>
    <clipPath id="clip0_315_5182">
      <rect width="20" height="20" fill="white"/>
    </clipPath>
  </defs>
</svg>